<svg xmlns="http://www.w3.org/2000/svg" xmlns:xlink="http://www.w3.org/1999/xlink" width="125.33" height="91.5" viewBox="0 0 125.33 91.5"><defs><style>.a,.g{opacity:0.1;}.a,.b{fill:url(#a);}.c{fill:#fff;}.d,.h{opacity:0.5;}.d,.i{fill:url(#e);}.e{fill:#ededee;}.f,.g{fill:#080d2d;}.j{fill:#ff6464;}</style><linearGradient id="a" x1="0.5" x2="0.5" y2="1" gradientUnits="objectBoundingBox"><stop offset="0" stop-color="#4b5bc1"/><stop offset="1" stop-color="#3a55ff"/></linearGradient><linearGradient id="e" x1="-0.612" y1="-1.549" x2="2.677" y2="6.517" gradientUnits="objectBoundingBox"><stop offset="0" stop-color="#4b5bc1"/><stop offset="1" stop-color="#0c102a"/></linearGradient></defs><g transform="translate(-58 -400.786)"><path class="a" d="M24.829,76.46a24.831,24.831,0,0,1-3.206-49.454A37.648,37.648,0,0,1,87.59,14.711a17.363,17.363,0,0,1,21.271,13.532A24.834,24.834,0,0,1,100.5,76.46Z" transform="translate(58 400.786)"/><g transform="translate(65.489 449.649)"><path class="b" d="M107.538,177.589c-3.65-2.248-15.425-5.123-31.949-5.123l-8.728-10.183A9.691,9.691,0,0,0,59.5,158.9H18.719a7.752,7.752,0,0,0-5.482,2.271l-9.777,9.778a7.755,7.755,0,0,0-2.039,3.6L0,180.218l29.072,13.566h81.4V182.828A6.147,6.147,0,0,0,107.538,177.589Z" transform="translate(-0.003 -158.899)"/><path class="b" d="M80.64,162.282a9.691,9.691,0,0,0-7.357-3.384H32.5a7.752,7.752,0,0,0-5.482,2.271l-9.357,9.357h5.068a48.4,48.4,0,0,1,5.35.3l14.775,1.642H89.368Z" transform="translate(-13.783 -158.898)"/><path class="c" d="M113.8,179.353H81.617a46.576,46.576,0,0,1-5.137-.284l-10.087-1.121a2.657,2.657,0,0,1-1.781-4.3l3.575-4.468a3.876,3.876,0,0,1,3.027-1.455h33.145a3.876,3.876,0,0,1,2.978,1.394l7.2,8.645A.969.969,0,0,1,113.8,179.353Z" transform="translate(-49.969 -165.787)"/><path class="b" d="M110.471,246.1c0-3.876-5.814-7.752-32.947-7.752H1.939A1.938,1.938,0,0,0,0,240.283v9.69l36.825,3.876h73.647Z" transform="translate(0 -220.902)"/><path class="d" d="M110.47,286.364H19.593l-17.235-3.83a1.938,1.938,0,1,0-.84,3.783l17.443,3.876a1.9,1.9,0,0,0,.42.046h91.09a1.938,1.938,0,0,0,0-3.876Z" transform="translate(0.001 -255.355)"/><circle class="e" cx="8.883" cy="8.883" r="8.883" transform="translate(7.591 23.095)"/><path class="f" d="M37.142,277.32A10.659,10.659,0,1,1,47.8,266.66,10.671,10.671,0,0,1,37.142,277.32Zm0-17.443a6.783,6.783,0,1,0,6.783,6.783A6.79,6.79,0,0,0,37.142,259.877Z" transform="translate(-20.668 -234.682)"/><circle class="g" cx="3.876" cy="3.876" r="3.876" transform="translate(12.598 28.101)"/><g class="h" transform="translate(29.071 23.257)"><path class="i" d="M180.865,268.7H134.351a1.938,1.938,0,0,1-1.938-1.938h0a1.938,1.938,0,0,1,1.938-1.938h46.514a1.938,1.938,0,0,1,1.938,1.938h0A1.938,1.938,0,0,1,180.865,268.7Z" transform="translate(-132.413 -264.829)"/><path class="i" d="M489.394,268.7h-1.938a1.938,1.938,0,0,1-1.938-1.938h0a1.938,1.938,0,0,1,1.938-1.938h1.938a1.938,1.938,0,0,1,1.938,1.938h0A1.938,1.938,0,0,1,489.394,268.7Z" transform="translate(-407.994 -264.829)"/></g><rect class="f" width="3.876" height="11.628" transform="translate(42.638 1.938)"/><path class="e" d="M480.423,247.173h-1.8a1.938,1.938,0,1,0,0,3.876h3.79A6.07,6.07,0,0,0,480.423,247.173Z" transform="translate(-372.032 -227.792)"/><path class="f" d="M284.336,169.172a9.679,9.679,0,0,0-1.545-1.446h-3.163a.969.969,0,0,0-.745,1.59l7.2,8.645a3.876,3.876,0,0,0,2.978,1.395h4Z" transform="translate(-217.479 -165.788)"/><path class="f" d="M96.041,178.938l3.738-11.213H95.9l-5.3,10.609Z" transform="translate(-70.707 -165.787)"/><path class="j" d="M4.866,222.773l-.449,1.793H9.261a1.938,1.938,0,1,0,0-3.876H5.735A7.755,7.755,0,0,0,4.866,222.773Z" transform="translate(-3.447 -207.124)"/><circle class="e" cx="8.883" cy="8.883" r="8.883" transform="translate(83.176 23.095)"/><path class="f" d="M381.414,277.32a10.659,10.659,0,1,1,10.659-10.659A10.671,10.671,0,0,1,381.414,277.32Zm0-17.443a6.783,6.783,0,1,0,6.783,6.783A6.79,6.79,0,0,0,381.414,259.877Z" transform="translate(-289.356 -234.682)"/><circle class="g" cx="3.876" cy="3.876" r="3.876" transform="translate(88.182 28.101)"/></g></g></svg>