<svg xmlns="http://www.w3.org/2000/svg" width="35.152" height="35.153" viewBox="0 0 35.152 35.153"><defs><style>.a{fill:#fecc05;}.b{fill:#3145c3;}</style></defs><g transform="translate(0 0)"><rect class="a" width="13.144" height="4.381" transform="translate(10.967 23.186)"/><ellipse class="a" cx="2.191" cy="2.191" rx="2.191" ry="2.191" transform="translate(15.346 15.302)"/><path class="b" d="M17.576,35.152A17.576,17.576,0,1,1,35.153,17.576,17.6,17.6,0,0,1,17.576,35.152Zm0-33.688A16.112,16.112,0,1,0,33.688,17.576,16.13,16.13,0,0,0,17.576,1.465Z"/><path class="b" d="M227.544,230.475a2.929,2.929,0,1,1,2.929-2.929A2.933,2.933,0,0,1,227.544,230.475Zm0-4.394a1.465,1.465,0,1,0,1.465,1.465A1.467,1.467,0,0,0,227.544,226.081Z" transform="translate(-209.968 -209.969)"/><path class="b" d="M71.224,69.533a.716.716,0,0,1-.28-.056l-2.7-1.121A.732.732,0,1,1,68.8,67l2.7,1.121a.732.732,0,0,1-.28,1.409Zm-25.709,0a.732.732,0,0,1-.28-1.409L47.94,67a.732.732,0,0,1,.561,1.353l-2.7,1.12A.72.72,0,0,1,45.515,69.532ZM47.3,64.48H44.372a.732.732,0,1,1,0-1.465H47.3a.732.732,0,1,1,0,1.465Zm24.982-.27H69.356a.732.732,0,0,1,0-1.465h2.928a.732.732,0,1,1,0,1.465Zm-12.36-1.555a.732.732,0,0,1-.518-1.25l7.249-7.248a.732.732,0,1,1,1.036,1.036l-7.249,7.248A.73.73,0,0,1,59.924,62.654ZM48.22,60a.738.738,0,0,1-.281-.056l-2.7-1.122a.733.733,0,1,1,.562-1.353L48.5,58.6A.732.732,0,0,1,48.22,60Zm20.3,0a.732.732,0,0,1-.28-1.409l2.706-1.12a.732.732,0,1,1,.561,1.353L68.8,59.948A.735.735,0,0,1,68.519,60ZM50.6,56.439a.73.73,0,0,1-.518-.215l-2.069-2.07a.732.732,0,1,1,1.036-1.036l2.069,2.07a.732.732,0,0,1-.518,1.25Zm3.565-2.382a.733.733,0,0,1-.677-.452l-1.12-2.7a.732.732,0,0,1,1.353-.561l1.12,2.7a.732.732,0,0,1-.677,1.013Zm8.408,0a.732.732,0,0,1-.677-1.013l1.121-2.7a.732.732,0,1,1,1.353.561l-1.121,2.7A.733.733,0,0,1,62.574,54.057ZM58.287,53.5a.732.732,0,0,1-.732-.732V49.833a.733.733,0,0,1,1.465,0v2.929A.733.733,0,0,1,58.287,53.5Z" transform="translate(-40.794 -45.899)"/><path class="b" d="M171.146,365.243H157.963a.732.732,0,0,1-.732-.732v-4.394a.732.732,0,0,1,.732-.732h13.182a.732.732,0,0,1,.732.732v4.394A.732.732,0,0,1,171.146,365.243Zm-12.45-1.465h11.718v-2.929H158.7Z" transform="translate(-146.978 -335.949)"/></g></svg>