<svg xmlns="http://www.w3.org/2000/svg" width="41.797" height="41.86" viewBox="0 0 41.797 41.86"><defs><style>.a{fill:#fecc05;}.b{fill:#3145c3;}</style></defs><g transform="translate(0 0)"><ellipse class="a" cx="4.849" cy="4.849" rx="4.849" ry="4.849" transform="translate(21.283 17.974)"/><path class="b" d="M41.949,2.881A2.828,2.828,0,0,0,39.139.063h-.006a2.8,2.8,0,0,0-1.995.83L35.505,2.522A5.521,5.521,0,0,0,32,2.716L30.168.889a2.818,2.818,0,1,0-3.984,3.983l2.294,2.3a5.312,5.312,0,0,0,.135,2.242l-.966.967a6.347,6.347,0,0,0-8.44.469L4.259,25.8l-.5-.5a2.114,2.114,0,1,0-2.989,2.99L13.724,41.24a2.114,2.114,0,1,0,2.99-2.99l-.5-.5L31.162,22.807a6.349,6.349,0,0,0,.469-8.44L32.6,13.4A5.615,5.615,0,0,0,39.49,6.506l1.633-1.633a2.8,2.8,0,0,0,.826-1.992Zm-14.769.994a1.4,1.4,0,0,1,0-2,1.437,1.437,0,0,1,1.987,0l1.546,1.541a5.659,5.659,0,0,0-1.791,2.2ZM15.717,40.243a.7.7,0,0,1-1,0L1.769,27.291a.706.706,0,0,1,1-1L15.717,39.247a.7.7,0,0,1,0,1Zm-.5-3.487L5.255,26.792l1-1,9.965,9.965ZM30.165,21.811,17.212,34.764,7.248,24.8,20.2,11.847a4.939,4.939,0,0,1,6.975,0l2.989,2.989a4.938,4.938,0,0,1,0,6.975Zm.5-8.469L28.67,11.348l.53-.53a5.662,5.662,0,0,0,1.993,1.993Zm3.387-1.153a4.227,4.227,0,1,1,4.227-4.227A4.227,4.227,0,0,1,34.051,12.188Zm6.075-8.314L38.9,5.1A5.671,5.671,0,0,0,36.909,3.11l1.226-1.226a1.392,1.392,0,0,1,1.993.006,1.375,1.375,0,0,1,.412.992,1.4,1.4,0,0,1-.414.994Zm0,0" transform="translate(-0.152 0.001)"/><path class="b" d="M379.4,70.155l1.409-1.409,1,1L380.4,71.151Zm0,0" transform="translate(-346.002 -62.692)"/><path class="b" d="M179.4,270.159l1.409-1.409,1,1-1.409,1.409Zm0,0" transform="translate(-163.616 -245.081)"/><path class="b" d="M139.4,295.561l2.818-2.819,1,1-2.819,2.818Zm0,0" transform="translate(-127.138 -266.96)"/><path class="b" d="M219.4,294.155l1.409-1.409,1,1-1.409,1.409Zm0,0" transform="translate(-200.089 -266.964)"/><path class="b" d="M179.4,319.56l2.818-2.818,1,1-2.818,2.818Zm0,0" transform="translate(-163.616 -288.847)"/><path class="b" d="M155.4,230.155l1.409-1.409,1,1-1.409,1.409Zm0,0" transform="translate(-141.729 -208.6)"/><path class="b" d="M115.4,255.56l2.819-2.818,1,1-2.818,2.818Zm0,0" transform="translate(-105.252 -230.483)"/><path class="b" d="M198.7,154.4a5.636,5.636,0,1,0,5.636,5.636A5.636,5.636,0,0,0,198.7,154.4Zm0,9.864a4.227,4.227,0,1,1,4.227-4.227A4.227,4.227,0,0,1,198.7,164.266Zm0,0" transform="translate(-176.07 -140.804)"/></g></svg>