<svg xmlns="http://www.w3.org/2000/svg" width="13.5" height="13.5" viewBox="0 0 13.5 13.5"><defs><style>.a{fill:none;stroke:#25338d;stroke-linecap:round;stroke-linejoin:round;stroke-width:1.5px;}</style></defs><g transform="translate(-0.25 -0.25)"><circle class="a" cx="2.045" cy="2.045" r="2.045" transform="translate(4.955 4.955)"/><path class="a" d="M11.036,8.636a.9.9,0,0,0,.18.993l.033.033a1.092,1.092,0,1,1-1.544,1.544l-.033-.033a.907.907,0,0,0-1.538.644v.093a1.091,1.091,0,0,1-2.182,0V11.86a.9.9,0,0,0-.589-.824.9.9,0,0,0-.993.18l-.033.033A1.092,1.092,0,1,1,2.795,9.705l.033-.033a.907.907,0,0,0-.644-1.538H2.091a1.091,1.091,0,0,1,0-2.182H2.14a.9.9,0,0,0,.824-.589.9.9,0,0,0-.18-.993l-.033-.033A1.092,1.092,0,1,1,4.295,2.795l.033.033a.9.9,0,0,0,.993.18h.044a.9.9,0,0,0,.545-.824V2.091a1.091,1.091,0,0,1,2.182,0V2.14a.907.907,0,0,0,1.538.644l.033-.033a1.092,1.092,0,1,1,1.544,1.544l-.033.033a.9.9,0,0,0-.18.993v.044a.9.9,0,0,0,.824.545h.093a1.091,1.091,0,0,1,0,2.182H11.86A.9.9,0,0,0,11.036,8.636Z"/></g></svg>