<svg xmlns="http://www.w3.org/2000/svg" width="44.94" height="30.443" viewBox="0 0 44.94 30.443"><defs><style>.a{fill:#fecc05;}.b{fill:#3145c3;}</style></defs><g transform="translate(0 0)"><path class="a" d="M96,104h17.4v20.3H96Zm0,0" transform="translate(-87.302 -94.577)"/><path class="b" d="M430.524,185.45h-2.9V184H424v1.45h2.175V189.8H424v1.45h3.624V189.8h2.9Zm-1.45,2.9h-1.45V186.9h1.45Zm0,0" transform="translate(-385.584 -167.329)"/><path class="a" d="M363.624,144H360v14.5h3.624l2.9-2.175V146.175Zm0,0" transform="translate(-327.382 -130.953)"/><path class="b" d="M31.168,2.9h-.725V2.175A2.177,2.177,0,0,0,28.269,0H7.973A2.172,2.172,0,0,0,5.932,1.45H0V5.8H5.8V8.831a2.172,2.172,0,0,0-1.45,2.041v5.074H0v11.6H4.349v.725a2.177,2.177,0,0,0,2.175,2.175H28.269a2.172,2.172,0,0,0,2.041-1.45h.858a2.177,2.177,0,0,0,2.175-2.175V5.074A2.177,2.177,0,0,0,31.168,2.9Zm-2.175-.725V2.9h-2.9V8.7H10.148V1.45H28.269A.726.726,0,0,1,28.993,2.175ZM7.973,1.45H8.7V8.7H7.248V2.175A.726.726,0,0,1,7.973,1.45ZM1.45,4.349V2.9H5.8v1.45ZM4.349,17.4v1.853a2.868,2.868,0,0,0-1.45-.4,2.868,2.868,0,0,0-1.45.4V17.4Zm0,4.349A1.45,1.45,0,1,1,2.9,20.3,1.451,1.451,0,0,1,4.349,21.745Zm-2.9,4.349V24.241a2.868,2.868,0,0,0,1.45.4,2.868,2.868,0,0,0,1.45-.4v1.853Zm27.544,2.175a.726.726,0,0,1-.725.725H10.148V15.222H8.7V28.993H6.524a.726.726,0,0,1-.725-.725v-17.4a.726.726,0,0,1,.725-.725H24.644v14.5h1.45v-14.5h2.175a.726.726,0,0,1,.725.725Zm2.9-1.45a.726.726,0,0,1-.725.725h-.725V10.873A2.177,2.177,0,0,0,28.269,8.7h-.725V4.349h3.624a.726.726,0,0,1,.725.725Zm0,0"/><path class="b" d="M272,288h1.45v1.45H272Zm0,0" transform="translate(-247.356 -261.906)"/><path class="b" d="M96,136h1.45v1.45H96Zm0,0" transform="translate(-87.302 -123.678)"/></g></svg>