<svg xmlns="http://www.w3.org/2000/svg" xmlns:xlink="http://www.w3.org/1999/xlink" width="256.683" height="187.397" viewBox="0 0 256.683 187.397"><defs><style>.a,.g{opacity:0.1;}.a,.b{fill:url(#a);}.c{fill:#fff;}.d,.h{opacity:0.5;}.d,.i{fill:url(#e);}.e{fill:#ededee;}.f,.g{fill:#080d2d;}.j{fill:#ff6464;}</style><linearGradient id="a" x1="0.5" x2="0.5" y2="1" gradientUnits="objectBoundingBox"><stop offset="0" stop-color="#4b5bc1"/><stop offset="1" stop-color="#3a55ff"/></linearGradient><linearGradient id="e" x1="-0.612" y1="-1.549" x2="2.677" y2="6.517" gradientUnits="objectBoundingBox"><stop offset="0" stop-color="#4b5bc1"/><stop offset="1" stop-color="#0c102a"/></linearGradient></defs><g transform="translate(0 0)"><path class="a" d="M50.853,156.593A50.855,50.855,0,0,1,44.285,55.309a77.107,77.107,0,0,1,135.1-25.181,35.559,35.559,0,0,1,43.563,27.715,50.861,50.861,0,0,1-17.121,98.751Z" transform="translate(0 0)"/><g transform="translate(15.337 100.073)"><path class="b" d="M220.239,197.177c-7.476-4.6-31.591-10.493-65.433-10.493L136.93,165.829a19.847,19.847,0,0,0-15.068-6.93H38.333a15.877,15.877,0,0,0-11.227,4.651L7.083,183.575a15.882,15.882,0,0,0-4.176,7.374L0,202.561l59.54,27.785H226.254V207.907A12.59,12.59,0,0,0,220.239,197.177Z" transform="translate(-0.002 -158.899)"/><path class="b" d="M146.647,165.828a19.848,19.848,0,0,0-15.068-6.93H48.05a15.877,15.877,0,0,0-11.227,4.651L17.66,182.714H28.039A99.133,99.133,0,0,1,39,183.321l30.261,3.362h95.265Z" transform="translate(-9.719 -158.898)"/><path class="c" d="M165.957,191.541h-65.9a95.384,95.384,0,0,1-10.52-.582l-20.66-2.3a5.441,5.441,0,0,1-3.648-8.806l7.321-9.152a7.938,7.938,0,0,1,6.2-2.979h67.883a7.939,7.939,0,0,1,6.1,2.856l14.755,17.7A1.985,1.985,0,0,1,165.957,191.541Z" transform="translate(-35.236 -163.756)"/><path class="b" d="M226.251,254.222c0-7.939-11.908-15.877-67.477-15.877H3.971A3.969,3.969,0,0,0,0,242.314l0,19.847L75.419,270.1H226.251Z" transform="translate(0 -202.622)"/><path class="d" d="M226.25,290.425H40.128l-35.3-7.843a3.969,3.969,0,1,0-1.721,7.748l35.723,7.939a3.889,3.889,0,0,0,.86.095H226.249a3.969,3.969,0,0,0,0-7.939Z" transform="translate(0.001 -226.917)"/><circle class="e" cx="18.193" cy="18.193" r="18.193" transform="translate(15.547 47.299)"/><path class="f" d="M48.314,299.663a21.831,21.831,0,1,1,21.831-21.831A21.855,21.855,0,0,1,48.314,299.663Zm0-35.724a13.892,13.892,0,1,0,13.892,13.892A13.906,13.906,0,0,0,48.314,263.939Z" transform="translate(-14.574 -212.339)"/><circle class="g" cx="7.939" cy="7.939" r="7.939" transform="translate(25.801 57.553)"/><g class="h" transform="translate(59.54 47.632)"><path class="i" d="M231.645,272.767H136.382a3.969,3.969,0,0,1-3.969-3.969h0a3.969,3.969,0,0,1,3.969-3.969h95.262a3.969,3.969,0,0,1,3.969,3.969h0A3.969,3.969,0,0,1,231.645,272.767Z" transform="translate(-132.413 -264.829)"/><path class="i" d="M493.457,272.767h-3.969a3.969,3.969,0,0,1-3.969-3.969h0a3.969,3.969,0,0,1,3.969-3.969h3.969a3.969,3.969,0,0,1,3.969,3.969h0A3.969,3.969,0,0,1,493.457,272.767Z" transform="translate(-326.745 -264.829)"/></g><rect class="f" width="7.939" height="23.816" transform="translate(87.324 3.968)"/><path class="e" d="M484.337,247.173h-3.679a3.969,3.969,0,0,0,0,7.938h7.761A12.433,12.433,0,0,0,484.337,247.173Z" transform="translate(-262.346 -207.48)"/><path class="f" d="M290.288,170.687a19.818,19.818,0,0,0-3.164-2.961h-6.478a1.985,1.985,0,0,0-1.525,3.255l14.754,17.7a7.938,7.938,0,0,0,6.1,2.856h8.19Z" transform="translate(-153.359 -163.757)"/><path class="f" d="M101.745,190.69l7.655-22.965h-7.939L90.6,189.452Z" transform="translate(-49.86 -163.756)"/><path class="j" d="M5.336,224.956l-.919,3.673h9.921a3.969,3.969,0,1,0,0-7.938H7.117A15.883,15.883,0,0,0,5.336,224.956Z" transform="translate(-2.43 -192.906)"/><circle class="e" cx="18.193" cy="18.193" r="18.193" transform="translate(170.348 47.299)"/><path class="f" d="M392.586,299.663a21.831,21.831,0,1,1,21.831-21.831A21.855,21.855,0,0,1,392.586,299.663Zm0-35.724a13.892,13.892,0,1,0,13.892,13.892A13.906,13.906,0,0,0,392.586,263.939Z" transform="translate(-204.045 -212.339)"/><circle class="g" cx="7.939" cy="7.939" r="7.939" transform="translate(180.602 57.553)"/></g></g></svg>